# xmcd
#
# Track frame offsets: 
#        150
#        13489
#        28351
#        45046
#        55857
#        67913
#        79583
#        95399
#        113055
#        128157
#        145159
#        162346
#        178122
#        190637
#
# Disc length: 2707 seconds
#
# Revision: 0
# Processed by: cddbd v1.4PL0 Copyright (c) Steve Scherf et al.
# Submitted via: ExactAudioCopy v0.90b2
#
DISCID=b30a910e
DTITLE=G.G. Shinn - You Can Never Keep A Good Man Down
DYEAR=2000
DGENRE=
TTITLE0=Someone, Somewhere
TTITLE1=Just Like A Woman
TTITLE2=Home At Last (My Little Girl)
TTITLE3=She's A Big Fat Woman
TTITLE4=Two Steps From The Blues
TTITLE5=Never Keep A Good Man Down
TTITLE6=Sashay
TTITLE7=Kiss Tomorrow Goodbye
TTITLE8=Leave My Kitten Alone
TTITLE9=You Hurt Me
TTITLE10=Certain Kind Of Something
TTITLE11=Heartbreak
TTITLE12=High Blood Pressure
TTITLE13=Baby Please
EXTD=
EXTT0=
EXTT1=
EXTT2=
EXTT3=
EXTT4=
EXTT5=
EXTT6=
EXTT7=
EXTT8=
EXTT9=
EXTT10=
EXTT11=
EXTT12=
EXTT13=
PLAYORDER=
